<svg height="512pt" viewBox="-61 0 512 512" width="512pt" xmlns="http://www.w3.org/2000/svg"><path d="m136.230469 0-136.230469 136.242188v375.757812h390.015625v-512zm-8.78125 51.210938-.011719 76.230468-76.222656.007813zm232.566406 430.789062h-330.015625v-324.546875l127.4375-.015625.015625-127.4375h202.5625zm0 0"/><path d="m108.03125 222.335938h-40.574219v84.273437h28.414063v-20.707031h12.160156c23.476562 0 38.402344-12.277344 38.402344-31.78125.003906-19.503906-14.925782-31.785156-38.402344-31.785156zm-1.804688 41.65625h-10.355468v-19.746094h10.355468c7.824219 0 11.554688 3.734375 11.554688 9.875s-3.730469 9.871094-11.554688 9.871094zm0 0"/><path d="m156.90625 222.335938v84.273437h41.535156c28.171875 0 47.554688-16.011719 47.554688-42.136719s-19.382813-42.136718-47.554688-42.136718zm60.4375 42.136718c0 12.882813-8.1875 19.988282-20.105469 19.988282h-11.917969v-39.972657h11.917969c11.917969 0 20.105469 7.105469 20.105469 19.984375zm0 0"/><path d="m285.960938 279.644531h35.15625v-21.429687h-35.15625v-14.449219h40.089843v-21.429687h-68.5v84.273437h28.410157zm0 0"/></svg>