<?xml version="1.0" encoding="utf-8"?>
<!-- Generator: Adobe Illustrator 22.1.0, SVG Export Plug-In . SVG Version: 6.00 Build 0)  -->
<svg version="1.1" id="Laag_1" xmlns="http://www.w3.org/2000/svg" xmlns:xlink="http://www.w3.org/1999/xlink" x="0px" y="0px"
	 viewBox="0 0 283.5 283.5" style="enable-background:new 0 0 283.5 283.5;" xml:space="preserve">
<style type="text/css">
	.st0{fill:none;stroke:#DBEBE9;stroke-width:7;stroke-miterlimit:10;}
	.st1{fill:#DBEBE9;}
	.st2{fill:#DBEBE9;stroke:#FFFFFF;stroke-width:6;stroke-miterlimit:10;}
	.st3{fill:#020203;}
</style>
<path class="st0" d="M182.5,16.1H83.2c-8.6,0-15.6,7-15.6,15.6V220c0,8.6,7,15.6,15.6,15.6h141.3c8.6,0,15.6-7,15.6-15.6V74.3
	L182.5,16.1z"/>
<path class="st1" d="M182.6,16.1v42.5c0,8.6,7,15.6,15.6,15.6H240L182.6,16.1z"/>
<path class="st2" d="M155.9,148.2H45.8c-8.6,0-15.6-7-15.6-15.6V85.7c0-8.6,7-15.6,15.6-15.6h110.2c8.6,0,15.6,7,15.6,15.6v46.9
	C171.5,141.2,164.5,148.2,155.9,148.2z"/>
<g>
	<path class="st3" d="M58.4,119.3V99.6c0-2.4-0.8-3.6-2.5-3.6c-0.3,0-0.6,0-1,0.1c-0.6,0.1-1.1,0.1-1.3,0.1c-1,0-1.6-0.5-1.6-1.6
		c0-1.1,0.7-1.7,2.2-1.7c0.2,0,0.5,0,0.7,0l2.4,0.3c0.8,0.1,1.8,0.1,2.9,0.1c0.8,0,1.8,0,2.9-0.1c2.7-0.2,4.7-0.3,6.1-0.3
		c2.1,0,3.9,0.2,5.4,0.5c2.2,0.5,3.9,1.5,5.1,3c1.2,1.6,1.8,3.5,1.8,5.7c0,3.1-1.1,5.4-3.2,7.1c-2.1,1.6-5.2,2.5-9.2,2.5h-3.5
		c-1.1,0-1.7,0-1.9,0h-0.1c-0.5,0-0.9,0.1-1,0.3c-0.1,0.2-0.2,0.6-0.2,1.2v1c0,4.1,0.1,6.7,0.4,7.5c0.2,0.9,1,1.3,2.1,1.3
		c0.4,0,0.7,0,1-0.1c0.7-0.1,1.2-0.1,1.3-0.1c1,0,1.5,0.5,1.5,1.6c0,1.2-0.7,1.8-2.2,1.8l-0.7-0.1l-2.5-0.3
		c-0.7-0.1-1.7-0.1-3.1-0.1c-1.1,0-2.1,0-2.8,0.1l-2.9,0.4c-0.1,0-0.2,0-0.3,0c-0.1,0-0.2,0-0.3,0c-1.5,0-2.2-0.6-2.2-1.7
		c0-0.5,0.1-0.8,0.4-1.2c0.3-0.3,0.7-0.5,1.1-0.5c0.4,0,0.8,0,1.3,0.1c0.2,0.1,0.6,0.1,1,0.1C57.5,123,58.4,121.7,58.4,119.3z
		 M62.9,97c-0.2,0.3-0.3,1.2-0.3,2.7v7.3c0,0.9,0.6,1.4,1.9,1.5c-0.1,0,0.9,0,2.9,0c2.3,0,4.3-0.2,5.8-0.5c2.9-0.7,4.4-2.6,4.4-5.8
		c0-4.2-2.7-6.2-8-6.2C65.5,96,63.3,96.3,62.9,97z"/>
	<path class="st3" d="M89.8,99.6c0-2.5-0.8-3.7-2.5-3.7c-0.3,0-0.6,0-1,0.1c-0.6,0.1-1,0.1-1.3,0.1c-1,0-1.5-0.5-1.5-1.6
		c0-1.1,0.7-1.7,2.2-1.7c0.2,0,0.4,0,0.6,0l2.6,0.3c1,0.1,2,0.2,3.1,0.2c0.9,0,1.8,0,2.8-0.1l3.2-0.3c0.6-0.1,1.4-0.1,2.5-0.1
		c3,0,5.5,0.4,7.5,1.3c2.6,1.1,4.7,3.1,6.2,5.8c1.5,2.8,2.3,6,2.3,9.6c0,3.2-0.6,6.1-1.8,8.7c-1.2,2.6-2.9,4.5-5,5.7
		c-2.5,1.5-5.6,2.2-9.1,2.2c-0.7,0-1.5,0-2.2-0.1l-3.4-0.3c-1.1-0.1-2.3-0.1-3.6-0.1c-1.1,0-2,0-2.7,0.1l-2.4,0.3
		c-0.1,0-0.2,0-0.3,0c-0.2,0-0.3,0-0.4,0c-1.4,0-2.1-0.6-2.1-1.7c0-0.5,0.1-0.8,0.4-1.2c0.3-0.3,0.7-0.5,1.1-0.5
		c0.4,0,0.8,0,1.3,0.1c0.2,0.1,0.6,0.1,1,0.1c1.7,0,2.5-1.2,2.5-3.7V99.6z M93.9,99.1v20.7c0,1.5,0.7,2.4,2.2,2.7
		c0.5,0.1,1.9,0.2,4.1,0.2c3.9,0,6.8-1.1,8.6-3.2c2.1-2.5,3.2-5.9,3.2-10.1c0-3.3-0.6-6-1.9-8.3c-1.3-2.3-3.1-3.7-5.3-4.4
		c-1.4-0.4-3.2-0.6-5.2-0.6c-2.6,0-4.2,0.1-4.7,0.4C94.2,96.9,93.9,97.7,93.9,99.1z"/>
	<path class="st3" d="M125.4,111.5v-4.1v-7.8c0-2.4-0.8-3.6-2.5-3.6c-0.4,0-0.7,0-1,0.1c-0.5,0.1-0.9,0.2-1.3,0.2
		c-0.4,0-0.8-0.2-1.1-0.5c-0.3-0.3-0.4-0.7-0.4-1.2c0-1.2,0.7-1.8,2.1-1.8c0.2,0,0.4,0,0.7,0l3.4,0.3c1.3,0.1,2.7,0.2,4.3,0.2
		c0.9,0,2.7,0,5.5-0.1l5.7-0.2c0.8,0,1.6-0.1,2.7-0.1c0.5-0.1,1-0.1,1.5-0.1c1.7,0,2.6,0.8,2.6,2.3c0,0.6-0.1,1.5-0.2,2.7
		c-0.2,1.2-0.2,2.1-0.2,2.8c0,0.5,0,1.2,0.1,2c0.1,0.8,0.1,1.5,0.1,2.2c0,1.3-0.6,2-1.8,2c-1.2,0-1.8-0.8-1.8-2.3
		c0-0.5,0-1.2,0.1-2.1c0-0.9,0.1-1.6,0.1-2.1c0-1.7-0.5-2.8-1.5-3.3c-1-0.5-3.3-0.7-7-0.7c-3.1,0-4.9,0.3-5.3,0.8
		c-0.3,0.4-0.5,1.9-0.5,4.5v3.6c0,0.9,0.1,1.5,0.4,1.7c0.2,0.2,0.9,0.3,2,0.3h1.6c2.1,0,3.2-0.8,3.2-2.4c0-0.4,0-0.9-0.1-1.5
		c-0.1-0.6-0.1-1.1-0.1-1.4c0-1.2,0.6-1.9,1.8-1.9c1.1,0,1.7,0.7,1.7,2.2c0,0.2,0,0.6-0.1,1.2l-0.3,2.7c-0.2,1.2-0.2,2.1-0.2,2.7
		c0,1.3,0.2,3.1,0.5,5.1c0.1,0.7,0.2,1.3,0.2,2c0,1.3-0.6,1.9-1.8,1.9c-1.1,0-1.7-0.7-1.7-2.1c0-0.3,0-0.8,0.1-1.5
		c0-0.7,0.1-1.1,0.1-1.5c0-1-0.3-1.7-0.8-2c-0.4-0.2-1.1-0.3-2.3-0.3h-1.5c-1.1,0-1.9,0.1-2.1,0.4c-0.3,0.3-0.4,1-0.4,2.1v5.8
		c0,1.5,0.2,2.6,0.5,3.1c0.3,0.5,1,0.8,1.9,0.8c0.2,0,0.6,0,1.1,0c0.5,0,0.9,0,1.1,0c1.5,0,2.3,0.6,2.3,1.7c0,0.5-0.2,0.9-0.5,1.2
		c-0.3,0.3-0.8,0.5-1.3,0.5c-0.5,0-1.3-0.1-2.3-0.2c-1.4-0.2-3.1-0.3-4.9-0.3c-1.2,0-2.4,0.1-3.8,0.3L122,126c-0.1,0-0.2,0-0.3,0
		c-0.1,0-0.2,0-0.3,0c-1.4,0-2.2-0.6-2.2-1.8c0-1,0.5-1.6,1.5-1.6c0.1,0,0.6,0,1.3,0.1c0.4,0.1,0.7,0.1,1,0.1c0.9,0,1.5-0.3,1.8-0.8
		c0.3-0.5,0.5-1.5,0.6-2.9V111.5z"/>
</g>
<polygon class="st2" points="177.7,212.9 177.7,166.2 129.1,166.2 129.1,212.9 103.5,212.9 153.1,274.5 202.7,212.9 "/>
</svg>
